<svg version="1.1" id="icones" xmlns="http://www.w3.org/2000/svg" xmlns:xlink="http://www.w3.org/1999/xlink" width="0" height="0">

	<polygon id="icon_house" points="50,11.352 0.084,47 17,47 17,87 41,87 41,65 58,65 58,87 83,87 83,47 99.916,47 "/>

	<g id="icon_flag-uk">
		<clipPath id="t"><path d="M63,52h63v52z v52h-63z h-63v-52z v-52h63z"/></clipPath>
		<rect width="126" height="104" fill="#00247d"/>
		<g stroke="#fff" stroke-width="18" fill="none">
			<path d="M0,0L126,104 M126,0L0,104"/>
			<path d="M0,0L126,104 M126,0L0,104" clip-path="url(#t)" stroke-width="21"/>
			<path d="M0,0L126,104 M126,0L0,104" clip-path="url(#t)" stroke-width="16" stroke="#cf142b"/>
			<path d="M63,0v104 M0,52h126" stroke-width="26"/>
			<path d="M63,0v104 M0,52h126" stroke="#cf142b"/>
		</g>
	</g>
	<g id="icon_flag-br">
		<rect x="-12.857" y="-1.5" fill="#009B3A" width="75.713" height="53"/>
		<path fill="#FEDF00" d="M-4.643,25L25,43.93L54.643,25L25,6.072L-4.643,25z"/>
		<circle fill="#002776" cx="25" cy="25" r="12.5"/>
		<g>
			<defs><circle id="flagbr_1_" cx="25" cy="25" r="12.5"/>
			</defs><clipPath id="flagbr_2_"><use xlink:href="#flagbr_1_"  overflow="visible"/></clipPath>
			<path clip-path="url(#flagbr_2_)" fill="#FFFFFF" d="M-12.5,50c0-16.766,13.591-30.356,30.357-30.356
				c16.766,0,30.357,13.591,30.357,30.356h-1.786c0-15.779-12.792-28.571-28.571-28.571C2.077,21.429-10.714,34.221-10.714,50H-12.5z"
				/>
		</g>
	</g>

	<g id="icon_person">
		<circle cx="49.562" cy="32.454" r="25.038"/><path d="M100,94v0.812C100,75.822,83.052,62,64.062,62H35.938C16.95,62,0,75.822,0,94.812V94H100z"/>
	</g>

	<g id="icon_mail"><polygon points="50,59.78 0,28.644 0,82 100,82 100,28.644 "/><polygon points="50.121,49.1 99.964,18 0.276,18 "/></g>

	<g id="icon_plus"><rect y="37" width="100" height="25"/><rect x="37" width="25" height="100"/></g>

	<polygon id="icon_x" points="93.841,23.13 76.163,5.452 49.293,32.322 23.13,6.159 5.452,23.837 31.615,50 5.452,76.163 23.13,93.841 
	49.293,67.678 76.163,94.548 93.841,76.87 66.971,50 "/>

	<g id="icon_check">
		<rect x="15.801" y="28.914" transform="matrix(0.7071 -0.7071 0.7071 0.7071 -31.9808 37.2382)" width="26.314" height="56.614"/>
		<rect x="47.286" y="4.624" transform="matrix(0.7071 0.7071 -0.7071 0.7071 51.0498 -28.9275)" width="26.315" height="85.072"/>
	</g>

	<g id="icon_pencil">
		<rect x="24.877" y="21.171" transform="matrix(-0.7071 0.7071 -0.7071 -0.7071 131.787 24.7722)" width="71.773" height="37.02"/>
		<polygon points="17.739,57.021 2.861,97.581 43.421,82.705"/>
	</g>

	<g id="icon_search">
		<path d="M37.736,0.392c-20.509,0-37.135,16.625-37.135,37.136c0,20.509,16.626,37.135,37.135,37.135S74.87,58.037,74.87,37.528
	C74.87,17.018,58.245,0.392,37.736,0.392z M37.736,61.203c-13.076,0-23.675-10.6-23.675-23.675c0-13.076,10.6-23.675,23.675-23.675
	s23.674,10.6,23.674,23.675C61.41,50.603,50.812,61.203,37.736,61.203z"/>
		<rect x="66.732" y="48.548" transform="matrix(0.7071 -0.7071 0.7071 0.7071 -31.2107 75.1801)" width="16.826" height="53.434"/>
	</g>

	<g id="icon_forbidden">
		<path d="M50.104,0.392c-27.34,0-49.503,22.163-49.503,49.503c0,27.34,22.163,49.503,49.503,49.503s49.501-22.163,49.501-49.503
	C99.604,22.555,77.443,0.392,50.104,0.392z M50.104,81.455c-17.431,0-31.56-14.13-31.56-31.56c0-17.431,14.129-31.56,31.56-31.56
	s31.559,14.129,31.559,31.56C81.662,67.325,67.534,81.455,50.104,81.455z"/>
		<rect x="39.065" y="15.74" transform="matrix(0.7071 -0.7071 0.7071 0.7071 -20.7289 49.8749)" width="21.55" height="68.438"/>
	</g>

	<polygon id="icon_downarrow" points="0,20 100,20 50,80.215 "/>
	<polygon id="icon_uparrow" points="0,20 100,20 50,80.215 " transform="rotate(180,50,45)"/>

	<g id="icon_thumbs">
		<rect width="42" height="42"/><rect x="58" width="42" height="42"/>
		<rect y="58" width="42" height="42"/><rect x="58" y="58" width="42" height="42"/>
	</g>

	<g id="icon_lines">
		<rect width="100" height="23"/><rect y="77" width="100" height="23"/><rect y="38" width="100" height="23"/>
	</g>

	<path id="icon_eye" d="M50,21.085c-21.38,0-40.03,11.638-50,28.914c9.97,17.277,28.62,28.915,50,28.915c21.38,0,40.03-11.638,50-28.915
	C90.03,32.723,71.38,21.085,50,21.085z M50,68.131c-10.471,0-18.958-8.488-18.958-18.959S39.529,30.214,50,30.214
	s18.958,8.487,18.958,18.958S60.471,68.131,50,68.131z"/>

	<polygon id="icon_next" points="34,0 21.5,12.5 59,50 21.5,87.5 34,100 84,50 "/>
	<polygon id="icon_prev" points="64.5,100 77,87.5 39.5,50 77,12.5 64.5,0 14.5,50 "/>

	<g id="icon_loading">
		<path d="M50,0C22.386,0,0,22.386,0,50s22.386,50,50,50s50-22.386,50-50S77.614,0,50,0z M50,90.75C27.495,90.75,9.25,72.506,9.25,50
	C9.25,27.495,27.495,9.25,50,9.25c22.506,0,40.75,18.245,40.75,40.75C90.75,72.506,72.506,90.75,50,90.75z"/>
		<circle cx="50" cy="50" r="3.75"/>
		<rect x="46" y="14" width="8" height="36"/>
	</g>

	<g id="icon_reload">
		<polygon points="40.039,50 20.034,70.005 0.029,50 "/>
		<polygon points="60.029,50 80.034,29.995 100.039,50 "/>
		<g>
			<path d="M72.619,50c0,12.488-10.127,22.613-22.619,22.613c-3.58,0-6.963-0.834-9.972-2.314l-7.187,14.63
				c5.177,2.547,10.999,3.982,17.158,3.982c21.496,0,38.921-17.421,38.921-38.911H72.619z"/>
			<path d="M50,11.088c-21.495,0-38.921,17.421-38.921,38.912h16.302c0-12.49,10.127-22.614,22.619-22.614
				c3.579,0,6.963,0.834,9.972,2.314l7.187-14.63C61.981,12.524,56.159,11.088,50,11.088z"/>
		</g>
	</g>

	<g id="icon_nopicture">
		<polygon points="70.599,7 29.402,7 20.039,20 79.962,20 "/>
		<path d="M0,19v71h100V19H0z M50,83.368c-17.324,0-31.368-14.044-31.368-31.368S32.676,20.632,50,20.632S81.368,34.676,81.368,52
			S67.324,83.368,50,83.368z"/>
		<rect x="44.82" y="30.232" transform="matrix(0.7072 0.707 -0.707 0.7072 51.4071 -20.1244)" width="10.358" height="43.536"/>
		<rect x="44.82" y="30.232" transform="matrix(0.7071 -0.7072 0.7072 0.7071 -22.1254 50.5901)" width="10.359" height="43.537"/>
	</g>

	<g id="icon_ellipsis">
		<circle cx="50.045" cy="50.374" r="13"/>
		<circle cx="13.045" cy="50.374" r="13"/>
		<circle cx="87.045" cy="50.374" r="13"/>
	</g>

	<g id="icon_file">
		<polygon points="37,0 37.177,0 10,27.177 10,27 37,27 "/>
		<polygon points="44,0 44,34 10,34 10,100 90,100 90,0 "/>
	</g>

	<path id="icon_reply" d="M71.037,28.359l1.326-18.586l20.641,33.979L67.685,75.335l1.504-21.074C9.975,47.639,8.008,99.634,8.008,99.634
	C8.008,22.838,60.944,26.889,71.037,28.359z"/>

	<polygon id="icon_star" points="50,2.241 64.021,35.432 99.92,38.51 72.687,62.102 80.853,97.194 50,78.583 19.148,97.194 27.313,62.102 0.081,38.51 35.979,35.432 "/>

	<path id="icon_questionmark" d="M41.241,52.333c0-10.66,12.261-12.262,12.261-16.977c0-2.078-1.505-3.679-5.56-3.679c-3.586,0-7.266,1.886-9.908,4.904
		l-9.055-10.376c5.188-5.848,13.014-8.867,20.752-8.867c12.449,0,20.184,6.037,20.184,15.092c0,13.49-14.615,14.527-14.615,21.601
		c0,1.605,0.66,3.019,1.413,3.771l-12.55,3.211C42.374,58.842,41.241,55.916,41.241,52.333z M41.053,73.461
		c0-4.812,4.055-8.866,8.871-8.866c4.808,0,8.862,4.055,8.862,8.866c0,4.812-4.055,8.867-8.862,8.867
		C45.108,82.328,41.053,78.273,41.053,73.461z"/>

	<path id="icon_suitcase" d="M91,25H75V11c0-3.313-2.687-6-6-6H30c-3.313,0-6,2.687-6,6v14H9c-2.761,0-5,2.239-5,5v51c0,2.762,2.239,5,5,5h82
	c2.762,0,5-2.238,5-5V30C96,27.239,93.762,25,91,25z M33,17c0-2.209,1.791-4,4-4h25c2.209,0,4,1.791,4,4v8H33V17z"/>

</svg>